<svg width="114" height="131" viewBox="0 0 114 131" fill="none" xmlns="http://www.w3.org/2000/svg">
<path d="M5.9502 127.225C5.45755 127.225 5.0581 127.112 4.75185 126.886C4.4456 126.646 4.20593 126.28 4.03284 125.787L0.138189 114.942C-0.0748521 114.343 -0.0415645 113.837 0.238051 113.424C0.530982 112.998 1.04361 112.785 1.77594 112.785C2.26859 112.785 2.65473 112.905 2.93435 113.145C3.21396 113.371 3.43366 113.73 3.59344 114.223L6.56935 123.151H5.63064L8.82625 114.223C9.01266 113.73 9.24568 113.371 9.52529 113.145C9.80491 112.905 10.1644 112.785 10.6038 112.785C11.0432 112.785 11.3961 112.905 11.6624 113.145C11.9287 113.371 12.1484 113.737 12.3214 114.243L15.3173 123.151H14.5184L17.5742 114.223C17.734 113.73 17.9471 113.371 18.2134 113.145C18.493 112.905 18.8791 112.785 19.3718 112.785C19.9843 112.785 20.4303 112.998 20.7099 113.424C21.0029 113.837 21.0361 114.343 20.8098 114.942L16.8752 125.807C16.7021 126.286 16.4624 126.646 16.1562 126.886C15.8633 127.112 15.4705 127.225 14.9778 127.225C14.4718 127.225 14.0657 127.112 13.7595 126.886C13.4665 126.646 13.2335 126.28 13.0604 125.787L10.2443 117.878H10.7436L7.86757 125.807C7.68116 126.286 7.44149 126.646 7.14856 126.886C6.85563 127.112 6.45618 127.225 5.9502 127.225Z" fill="url(#paint0_linear_39_266)"/>
<path d="M25.401 127.225C24.8417 127.225 24.409 127.072 24.1028 126.766C23.7965 126.46 23.6434 126.014 23.6434 125.428V114.583C23.6434 113.997 23.7965 113.551 24.1028 113.244C24.409 112.938 24.8417 112.785 25.401 112.785C25.9735 112.785 26.4129 112.938 26.7192 113.244C27.0387 113.551 27.1985 113.997 27.1985 114.583V118.937H26.8789C27.1985 118.311 27.6512 117.831 28.2371 117.499C28.8363 117.166 29.5153 116.999 30.2743 116.999C31.0599 116.999 31.7057 117.152 32.2116 117.459C32.7176 117.752 33.0971 118.218 33.3501 118.857C33.603 119.482 33.7295 120.275 33.7295 121.233V125.428C33.7295 126.014 33.5764 126.46 33.2702 126.766C32.9639 127.072 32.5245 127.225 31.952 127.225C31.3794 127.225 30.94 127.072 30.6338 126.766C30.3275 126.46 30.1744 126.014 30.1744 125.428V121.373C30.1744 120.774 30.0679 120.348 29.8549 120.095C29.6551 119.842 29.3555 119.716 28.9561 119.716C28.4235 119.716 27.9974 119.889 27.6779 120.235C27.3583 120.568 27.1985 121.02 27.1985 121.593V125.428C27.1985 126.626 26.5993 127.225 25.401 127.225Z" fill="url(#paint1_linear_39_266)"/>
<path d="M41.1083 127.265C39.91 127.265 38.8714 127.059 37.9926 126.646C37.1271 126.22 36.4614 125.621 35.9953 124.848C35.5293 124.076 35.2963 123.164 35.2963 122.112C35.2963 121.1 35.516 120.215 35.9554 119.456C36.4081 118.684 37.0206 118.084 37.7929 117.658C38.5784 117.219 39.4706 116.999 40.4692 116.999C41.2015 116.999 41.8673 117.119 42.4664 117.359C43.0656 117.585 43.5782 117.925 44.0043 118.377C44.4304 118.817 44.75 119.349 44.963 119.975C45.1894 120.601 45.3025 121.3 45.3025 122.072C45.3025 122.339 45.2293 122.538 45.0828 122.671C44.9364 122.791 44.7034 122.851 44.3838 122.851H38.2722V121.174H42.7061L42.3865 121.433C42.3865 120.94 42.32 120.541 42.1868 120.235C42.0537 119.929 41.8539 119.696 41.5876 119.536C41.3347 119.376 41.0151 119.296 40.629 119.296C40.2162 119.296 39.8567 119.396 39.5504 119.596C39.2575 119.782 39.0312 120.062 38.8714 120.435C38.7116 120.807 38.6317 121.273 38.6317 121.833V122.012C38.6317 122.958 38.8381 123.637 39.2509 124.05C39.6769 124.449 40.3294 124.649 41.2082 124.649C41.5011 124.649 41.834 124.615 42.2068 124.549C42.5929 124.469 42.9591 124.362 43.3053 124.229C43.6515 124.096 43.9511 124.076 44.2041 124.169C44.457 124.249 44.6501 124.396 44.7833 124.609C44.9297 124.809 45.0096 125.042 45.0229 125.308C45.0362 125.561 44.9763 125.814 44.8432 126.067C44.71 126.306 44.4903 126.493 44.1841 126.626C43.7181 126.839 43.2187 126.999 42.6861 127.105C42.1669 127.212 41.6409 127.265 41.1083 127.265Z" fill="url(#paint2_linear_39_266)"/>
<path d="M48.6517 127.225C48.0658 127.225 47.6131 127.072 47.2936 126.766C46.9873 126.46 46.8342 126.014 46.8342 125.428V118.817C46.8342 118.244 46.9807 117.805 47.2736 117.499C47.5798 117.192 48.0126 117.039 48.5718 117.039C49.131 117.039 49.5571 117.192 49.85 117.499C50.143 117.805 50.2894 118.244 50.2894 118.817V119.636H50.0897C50.2229 118.837 50.5624 118.204 51.1083 117.738C51.6675 117.272 52.3599 117.026 53.1855 116.999C53.5716 116.986 53.8579 117.086 54.0443 117.299C54.244 117.499 54.3505 117.878 54.3638 118.437C54.3638 118.917 54.264 119.296 54.0643 119.576C53.8645 119.855 53.4851 120.022 52.9258 120.075L52.4664 120.115C51.7608 120.182 51.2481 120.381 50.9286 120.714C50.609 121.034 50.4492 121.513 50.4492 122.152V125.428C50.4492 126.014 50.2961 126.46 49.9898 126.766C49.6836 127.072 49.2376 127.225 48.6517 127.225Z" fill="url(#paint3_linear_39_266)"/>
<path d="M60.6713 127.265C59.4729 127.265 58.4343 127.059 57.5555 126.646C56.6901 126.22 56.0243 125.621 55.5583 124.848C55.0923 124.076 54.8593 123.164 54.8593 122.112C54.8593 121.1 55.079 120.215 55.5183 119.456C55.9711 118.684 56.5836 118.084 57.3558 117.658C58.1414 117.219 59.0335 116.999 60.0322 116.999C60.7645 116.999 61.4302 117.119 62.0294 117.359C62.6286 117.585 63.1412 117.925 63.5673 118.377C63.9934 118.817 64.3129 119.349 64.526 119.975C64.7523 120.601 64.8655 121.3 64.8655 122.072C64.8655 122.339 64.7923 122.538 64.6458 122.671C64.4993 122.791 64.2663 122.851 63.9468 122.851H57.8352V121.174H62.2691L61.9495 121.433C61.9495 120.94 61.8829 120.541 61.7498 120.235C61.6166 119.929 61.4169 119.696 61.1506 119.536C60.8976 119.376 60.5781 119.296 60.1919 119.296C59.7792 119.296 59.4197 119.396 59.1134 119.596C58.8205 119.782 58.5941 120.062 58.4343 120.435C58.2746 120.807 58.1947 121.273 58.1947 121.833V122.012C58.1947 122.958 58.4011 123.637 58.8138 124.05C59.2399 124.449 59.8923 124.649 60.7711 124.649C61.0641 124.649 61.3969 124.615 61.7698 124.549C62.1559 124.469 62.5221 124.362 62.8683 124.229C63.2144 124.096 63.514 124.076 63.767 124.169C64.02 124.249 64.2131 124.396 64.3462 124.609C64.4927 124.809 64.5726 125.042 64.5859 125.308C64.5992 125.561 64.5393 125.814 64.4061 126.067C64.273 126.306 64.0533 126.493 63.747 126.626C63.281 126.839 62.7817 126.999 62.2491 127.105C61.7298 127.212 61.2039 127.265 60.6713 127.265Z" fill="url(#paint4_linear_39_266)"/>
<path d="M68.0475 118.997C67.8345 119.289 67.5948 119.449 67.3285 119.476C67.0755 119.502 66.8558 119.449 66.6694 119.316C66.483 119.183 66.3765 118.997 66.3499 118.757C66.3232 118.504 66.4364 118.231 66.6894 117.938C67.0223 117.552 67.242 117.166 67.3485 116.78C67.455 116.393 67.5083 116.047 67.5083 115.741L67.6281 116.72C67.0156 116.72 66.523 116.547 66.1501 116.2C65.7773 115.854 65.5909 115.381 65.5909 114.782C65.5909 114.196 65.764 113.73 66.1102 113.384C66.4697 113.025 66.9491 112.845 67.5482 112.845C68.174 112.845 68.66 113.058 69.0062 113.484C69.3524 113.897 69.5255 114.476 69.5255 115.222C69.5255 115.595 69.4856 115.974 69.4057 116.36C69.3391 116.746 69.1993 117.159 68.9863 117.598C68.7865 118.025 68.4736 118.491 68.0475 118.997Z" fill="url(#paint5_linear_39_266)"/>
<path d="M74.7003 127.265C74.1144 127.265 73.5152 127.219 72.9027 127.125C72.3036 127.045 71.7577 126.892 71.265 126.666C70.9321 126.533 70.6925 126.353 70.546 126.127C70.4128 125.9 70.3463 125.661 70.3463 125.408C70.3596 125.155 70.4328 124.928 70.566 124.729C70.7124 124.516 70.8988 124.369 71.1252 124.289C71.3649 124.196 71.6312 124.203 71.9241 124.309C72.4833 124.509 72.9826 124.655 73.422 124.749C73.8747 124.828 74.3075 124.868 74.7202 124.868C75.2129 124.868 75.5658 124.802 75.7788 124.669C75.9918 124.522 76.0984 124.336 76.0984 124.109C76.0984 123.91 76.0251 123.757 75.8787 123.65C75.7455 123.544 75.5524 123.47 75.2995 123.43L73.0825 123.071C72.257 122.924 71.6178 122.625 71.1651 122.172C70.7124 121.706 70.4861 121.1 70.4861 120.355C70.4861 119.662 70.6791 119.07 71.0653 118.577C71.4647 118.071 72.004 117.685 72.683 117.419C73.3754 117.139 74.1677 116.999 75.0598 116.999C75.659 116.999 76.2049 117.046 76.6975 117.139C77.1902 117.219 77.6695 117.372 78.1356 117.598C78.4285 117.718 78.6349 117.891 78.7547 118.118C78.8745 118.344 78.9211 118.584 78.8945 118.837C78.8679 119.076 78.7813 119.303 78.6349 119.516C78.5017 119.716 78.3153 119.855 78.0756 119.935C77.836 120.002 77.5564 119.982 77.2368 119.875C76.7974 119.702 76.4046 119.576 76.0584 119.496C75.7255 119.416 75.4126 119.376 75.1197 119.376C74.5738 119.376 74.1877 119.449 73.9613 119.596C73.7349 119.742 73.6218 119.929 73.6218 120.155C73.6218 120.328 73.6817 120.474 73.8015 120.594C73.9213 120.701 74.1078 120.774 74.3607 120.814L76.5777 121.193C77.4299 121.327 78.0823 121.62 78.535 122.072C79.001 122.512 79.234 123.111 79.234 123.87C79.234 124.948 78.8213 125.787 77.9958 126.386C77.1702 126.972 76.0717 127.265 74.7003 127.265Z" fill="url(#paint6_linear_39_266)"/>
<path fill-rule="evenodd" clip-rule="evenodd" d="M97.8387 113.147C97.5325 112.921 97.1331 112.808 96.6404 112.808C96.1344 112.808 95.735 112.921 95.442 113.147C95.1491 113.387 94.9094 113.746 94.723 114.226L92.099 121.46L89.5302 114.246C89.3571 113.753 89.1241 113.387 88.8311 113.147C88.5249 112.921 88.1188 112.808 87.6128 112.808C87.1201 112.808 86.7274 112.921 86.4344 113.147C86.1282 113.387 85.8885 113.746 85.7154 114.226L81.7808 125.091C81.5545 125.69 81.5877 126.196 81.8807 126.609C82.1603 127.035 82.6063 127.248 83.2188 127.248C83.7115 127.248 84.0976 127.128 84.3772 126.888C84.6435 126.662 84.8566 126.302 85.0164 125.81L87.6692 118.059L90.2692 125.79C90.4422 126.296 90.6619 126.662 90.9282 126.888C91.1945 127.128 91.5474 127.248 91.9868 127.248C92.4262 127.248 92.7857 127.128 93.0653 126.888C93.3449 126.662 93.5779 126.302 93.7643 125.81L96.4739 118.24L98.9972 125.81C99.1569 126.302 99.3766 126.662 99.6563 126.888C99.9359 127.128 100.322 127.248 100.815 127.248C101.547 127.248 102.06 127.035 102.353 126.609C102.632 126.196 102.665 125.69 102.452 125.091L98.5578 114.246C98.3847 113.753 98.145 113.387 97.8387 113.147ZM106.373 130.68C106.626 130.894 106.959 131 107.372 131C107.811 131 108.171 130.907 108.451 130.72C108.744 130.547 109.01 130.194 109.25 129.662L113.783 119.476C113.956 119.076 114.016 118.704 113.963 118.357C113.91 118.011 113.763 117.738 113.524 117.539C113.284 117.325 112.964 117.219 112.565 117.219C112.099 117.219 111.726 117.319 111.446 117.519C111.18 117.705 110.941 118.071 110.727 118.617L108.959 122.971L107.292 118.637C107.079 118.078 106.839 117.705 106.573 117.519C106.32 117.319 105.981 117.219 105.555 117.219C105.049 117.219 104.649 117.325 104.356 117.539C104.063 117.738 103.884 118.011 103.817 118.357C103.764 118.704 103.824 119.076 103.997 119.476L107.089 126.546L106.074 128.743C105.901 129.129 105.841 129.495 105.894 129.842C105.961 130.188 106.12 130.467 106.373 130.68Z" fill="url(#paint7_linear_39_266)"/>
<path d="M20.7076 92.3873C18.3171 92.1837 17.6417 89.0039 19.7429 87.8462L40.6221 76.3419C42.9311 75.0696 45.5652 74.5101 48.192 74.7338L94.2362 78.6553C96.596 78.8562 97.2984 81.9733 95.2528 83.1669L75.6171 94.6247C73.2435 96.0097 70.5 96.6279 67.7617 96.3947L20.7076 92.3873Z" fill="url(#paint8_linear_39_266)"/>
<g opacity="0.74" filter="url(#filter0_f_39_266)">
<path d="M69.6323 83.978C69.6323 85.4825 63.9537 86.7022 56.9487 86.7022C49.9438 86.7022 44.2651 85.4825 44.2651 83.978C44.2651 82.4734 49.9438 81.2537 56.9487 81.2537C63.9537 81.2537 69.6323 82.4734 69.6323 83.978Z" fill="#4728A9"/>
</g>
<path fill-rule="evenodd" clip-rule="evenodd" d="M57.1664 35.2923L82.7213 28.6468C82.8333 27.6733 82.8908 26.6833 82.8908 25.6798C82.8908 11.4972 71.3936 0 57.211 0C57.1962 0 57.1813 1.26725e-05 57.1664 3.80073e-05V35.2923Z" fill="url(#paint9_linear_39_266)"/>
<path fill-rule="evenodd" clip-rule="evenodd" d="M60.834 78.976C60.0517 80.4382 58.6056 81.1617 57.1664 81.1464V40.741L82.7213 34.0955C82.3721 37.1307 81.4937 40.005 80.1806 42.6236C80.1015 42.8947 79.9923 43.1639 79.8511 43.4278L60.834 78.976Z" fill="url(#paint10_linear_39_266)"/>
<path fill-rule="evenodd" clip-rule="evenodd" d="M31.5312 25.6797C31.5312 11.5121 43.0044 0.0241061 57.1664 0V35.2923L31.7036 28.6707C31.5898 27.6895 31.5312 26.6915 31.5312 25.6797Z" fill="url(#paint11_linear_39_266)"/>
<path fill-rule="evenodd" clip-rule="evenodd" d="M57.1664 40.741L31.7036 34.1194C32.0547 37.1458 32.9319 40.0118 34.2415 42.6235C34.3207 42.8946 34.4298 43.1639 34.571 43.4278L53.5882 78.976C54.3542 80.4079 55.757 81.1314 57.1664 81.1464V40.741Z" fill="url(#paint12_linear_39_266)"/>
<defs>
<filter id="filter0_f_39_266" x="24.2651" y="61.2537" width="65.3672" height="45.4486" filterUnits="userSpaceOnUse" color-interpolation-filters="sRGB">
<feFlood flood-opacity="0" result="BackgroundImageFix"/>
<feBlend mode="normal" in="SourceGraphic" in2="BackgroundImageFix" result="shape"/>
<feGaussianBlur stdDeviation="10" result="effect1_foregroundBlur_39_266"/>
</filter>
<linearGradient id="paint0_linear_39_266" x1="39.617" y1="112.785" x2="52.9891" y2="138.866" gradientUnits="userSpaceOnUse">
<stop stop-color="#9C77F5"/>
<stop offset="1" stop-color="#7751F1"/>
</linearGradient>
<linearGradient id="paint1_linear_39_266" x1="39.617" y1="112.785" x2="52.9891" y2="138.866" gradientUnits="userSpaceOnUse">
<stop stop-color="#9C77F5"/>
<stop offset="1" stop-color="#7751F1"/>
</linearGradient>
<linearGradient id="paint2_linear_39_266" x1="39.617" y1="112.785" x2="52.9891" y2="138.866" gradientUnits="userSpaceOnUse">
<stop stop-color="#9C77F5"/>
<stop offset="1" stop-color="#7751F1"/>
</linearGradient>
<linearGradient id="paint3_linear_39_266" x1="39.617" y1="112.785" x2="52.9891" y2="138.866" gradientUnits="userSpaceOnUse">
<stop stop-color="#9C77F5"/>
<stop offset="1" stop-color="#7751F1"/>
</linearGradient>
<linearGradient id="paint4_linear_39_266" x1="39.617" y1="112.785" x2="52.9891" y2="138.866" gradientUnits="userSpaceOnUse">
<stop stop-color="#9C77F5"/>
<stop offset="1" stop-color="#7751F1"/>
</linearGradient>
<linearGradient id="paint5_linear_39_266" x1="39.617" y1="112.785" x2="52.9891" y2="138.866" gradientUnits="userSpaceOnUse">
<stop stop-color="#9C77F5"/>
<stop offset="1" stop-color="#7751F1"/>
</linearGradient>
<linearGradient id="paint6_linear_39_266" x1="39.617" y1="112.785" x2="52.9891" y2="138.866" gradientUnits="userSpaceOnUse">
<stop stop-color="#9C77F5"/>
<stop offset="1" stop-color="#7751F1"/>
</linearGradient>
<linearGradient id="paint7_linear_39_266" x1="112.986" y1="117.751" x2="84.5961" y2="120.017" gradientUnits="userSpaceOnUse">
<stop stop-color="#49DEDE"/>
<stop offset="1" stop-color="#26C0C0"/>
</linearGradient>
<linearGradient id="paint8_linear_39_266" x1="21.1115" y1="80.5589" x2="32.3371" y2="55.7134" gradientUnits="userSpaceOnUse">
<stop stop-color="#49DEDE"/>
<stop offset="1" stop-color="#85FFFF"/>
</linearGradient>
<linearGradient id="paint9_linear_39_266" x1="70.0286" y1="6.01494e-08" x2="71.4131" y2="27.0196" gradientUnits="userSpaceOnUse">
<stop stop-color="#D0B5FF"/>
<stop offset="1" stop-color="#C09BFF"/>
</linearGradient>
<linearGradient id="paint10_linear_39_266" x1="69.9438" y1="34.0955" x2="69.9438" y2="81.1467" gradientUnits="userSpaceOnUse">
<stop stop-color="#C09BFF"/>
<stop offset="1" stop-color="#6842E7"/>
</linearGradient>
<linearGradient id="paint11_linear_39_266" x1="44.3488" y1="0" x2="44.3488" y2="35.2923" gradientUnits="userSpaceOnUse">
<stop stop-color="#957AFE"/>
<stop offset="1" stop-color="#6856AE"/>
</linearGradient>
<linearGradient id="paint12_linear_39_266" x1="44.435" y1="34.1194" x2="44.435" y2="81.1464" gradientUnits="userSpaceOnUse">
<stop stop-color="#6A58B3"/>
<stop offset="1" stop-color="#8F77FF"/>
</linearGradient>
</defs>
</svg>
