<svg width="22" height="20" viewBox="0 0 22 20" fill="none" xmlns="http://www.w3.org/2000/svg">
<g clip-path="url(#clip0_39_221)">
<path d="M20.8389 0L11.6849 6.77325L13.3872 2.78158L20.8389 0Z" fill="#E17726"/>
<path d="M0.515875 0.00805664L7.94763 2.78214L9.56396 6.82614L0.515875 0.00805664ZM17.155 14.4049L21.2009 14.4819L19.7869 19.2854L14.85 17.9261L17.155 14.4049ZM4.17821 14.4049L6.47462 17.9261L1.54604 19.2855L0.140625 14.4819L4.17821 14.4049Z" fill="#E27625"/>
<path d="M9.34426 5.79603L9.50959 11.1363L4.56201 10.9112L5.96935 8.78803L5.98718 8.76762L9.34426 5.79603ZM11.9378 5.73645L15.3462 8.76778L15.3638 8.78812L16.7712 10.9113L11.8247 11.1363L11.9378 5.73645ZM6.6196 14.4204L9.32109 16.5253L6.18293 18.0404L6.6196 14.4204ZM14.7143 14.42L15.1418 18.0405L12.0124 16.5251L14.7143 14.42Z" fill="#E27625"/>
<path d="M12.0815 16.3268L15.2571 17.8644L12.3032 19.2683L12.3339 18.3404L12.0815 16.3268ZM9.25096 16.3274L9.00854 18.3253L9.02846 19.2672L6.06763 17.8644L9.25096 16.3274Z" fill="#D5BFB2"/>
<path d="M8.33392 11.8333L9.16375 13.5773L6.3385 12.7496L8.33392 11.8333ZM12.9993 11.8334L15.0042 12.7496L12.1697 13.577L12.9993 11.8334Z" fill="#233447"/>
<path d="M6.83545 14.4026L6.37878 18.1559L3.93103 14.4846L6.83545 14.4026ZM14.4979 14.4026L17.4024 14.4846L14.9455 18.1561L14.4979 14.4026ZM16.8426 10.699L14.7289 12.8532L13.0991 12.1085L12.3189 13.7488L11.8074 10.9281L16.8426 10.699ZM4.48953 10.699L9.52578 10.9281L9.0142 13.7488L8.23378 12.1087L6.6127 12.8533L4.48953 10.699Z" fill="#CC6228"/>
<path d="M4.34717 10.2568L6.73867 12.6835L6.8215 15.0793L4.34717 10.2568ZM16.9886 10.2524L14.5098 15.0835L14.6031 12.6835L16.9886 10.2524ZM9.40892 10.4046L9.50517 11.0104L9.743 12.5197L9.59009 17.1551L8.86717 13.4314L8.86692 13.3929L9.40892 10.4046ZM11.9232 10.3962L12.4666 13.3929L12.4663 13.4314L11.7416 17.1644L11.7129 16.2307L11.5998 12.4922L11.9232 10.3962Z" fill="#E27525"/>
<path d="M14.8156 12.5872L14.7347 14.6687L12.2119 16.6342L11.7019 16.2739L12.2735 13.3293L14.8156 12.5872ZM6.52637 12.5872L9.05962 13.3293L9.63128 16.2739L9.12128 16.6342L6.59837 14.6685L6.52637 12.5872Z" fill="#F5841F"/>
<path d="M5.58484 17.4048L8.81251 18.9341L8.79884 18.281L9.06892 18.044H12.2634L12.5433 18.2802L12.5226 18.9328L15.7298 17.4086L14.1692 18.6983L12.2821 19.9944H9.04301L7.15717 18.693L5.58484 17.4048Z" fill="#C0AC9D"/>
<path d="M11.8503 16.1233L12.3066 16.4457L12.574 18.5794L12.187 18.2526H9.14737L8.7677 18.586L9.02637 16.4459L9.48287 16.1233H11.8503Z" fill="#161616"/>
<path d="M20.2345 0.1875L21.3333 3.48392L20.6471 6.817L21.1357 7.19392L20.4745 7.69842L20.9715 8.08225L20.3134 8.6815L20.7174 8.97408L19.6453 10.2262L15.2478 8.94583L15.2097 8.92542L12.0408 6.25225L20.2345 0.1875ZM1.09883 0.1875L9.29267 6.25225L6.12367 8.92542L6.08558 8.94583L1.68808 10.2262L0.615917 8.97408L1.01958 8.68175L0.361917 8.08225L0.857917 7.69883L0.18675 7.19292L0.693833 6.81575L0 3.48408L1.09883 0.1875Z" fill="#763E1A"/>
<path d="M15.0326 8.66578L19.692 10.0224L21.2058 14.6879H17.2121L14.4604 14.7225L16.4616 10.8219L15.0326 8.66578ZM6.30061 8.66578L4.87136 10.8219L6.87278 14.7225L4.12236 14.6879H0.135864L1.64111 10.0224L6.30061 8.66578ZM13.6153 2.75928L12.312 6.27919L12.0354 11.0342L11.9296 12.5246L11.9212 16.3319H9.41195L9.40378 12.5318L9.29762 11.0329L9.02095 6.27919L7.71786 2.75928H13.6153Z" fill="#F5841F"/>
</g>
<defs>
<clipPath id="clip0_39_221">
<rect width="21.3333" height="20" fill="white"/>
</clipPath>
</defs>
</svg>
