<svg width="26" height="26" viewBox="0 0 26 26" fill="none" xmlns="http://www.w3.org/2000/svg">
<path fill-rule="evenodd" clip-rule="evenodd" d="M14.4348 3.43478C14.4348 2.64237 13.7924 2 13 2C12.2076 2 11.5652 2.64237 11.5652 3.43478V11.5652H3.43478C2.64237 11.5652 2 12.2076 2 13C2 13.7924 2.64237 14.4348 3.43478 14.4348H11.5652V22.5652C11.5652 23.3576 12.2076 24 13 24C13.7924 24 14.4348 23.3576 14.4348 22.5652V14.4348H22.5652C23.3576 14.4348 24 13.7924 24 13C24 12.2076 23.3576 11.5652 22.5652 11.5652H14.4348V3.43478Z" fill="white"/>
</svg>
