<svg width="20" height="20" viewBox="0 0 20 20" fill="none" xmlns="http://www.w3.org/2000/svg">
<path fill-rule="evenodd" clip-rule="evenodd" d="M9.71709 14.5899C9.71709 14.4403 9.83835 14.3191 9.98793 14.3191H10.9304C11.0583 14.3191 11.1687 14.4085 11.1953 14.5336L11.4978 15.9565C11.5148 16.0365 11.4948 16.1198 11.4434 16.1833C11.392 16.2468 11.3146 16.2837 11.2329 16.2837H9.84334C9.69377 16.2837 9.57251 16.1624 9.57251 16.0128C9.57251 15.8633 9.69377 15.742 9.84334 15.742H10.8985L10.7111 14.8608H9.98793C9.83835 14.8608 9.71709 14.7395 9.71709 14.5899Z" fill="url(#paint0_linear_39_203)"/>
<path fill-rule="evenodd" clip-rule="evenodd" d="M17.0403 2.35427C17.1079 2.38593 17.1595 2.44411 17.1828 2.51506L17.9657 4.89881C17.9818 4.94762 17.9836 4.99999 17.971 5.04979L17.3615 7.45687L17.5735 7.42054C17.7209 7.39528 17.8609 7.49432 17.8862 7.64174C17.9115 7.78917 17.8124 7.92917 17.665 7.95443L17.2793 8.02052L17.2901 8.23724L17.5865 8.20114C17.735 8.18305 17.87 8.28876 17.8881 8.43724C17.9062 8.58572 17.8005 8.72075 17.652 8.73883L17.3173 8.7796L17.3385 9.20352C17.3414 9.26225 17.3252 9.32033 17.2922 9.369L16.9008 9.94654L17.8262 13.163C17.8393 13.2085 17.8402 13.2567 17.8289 13.3027L16.9572 16.8427C16.9394 16.9151 16.8925 16.977 16.8275 17.0137C16.7625 17.0504 16.6853 17.0587 16.6141 17.0366L13.2037 15.9794L11.4149 17.6011C11.3651 17.6462 11.3002 17.6712 11.233 17.6712H9.988C9.83842 17.6712 9.71716 17.55 9.71716 17.4004C9.71716 17.2508 9.83842 17.1296 9.988 17.1296H11.1285L12.9544 15.4743C13.0254 15.41 13.125 15.3879 13.2165 15.4163L16.5 16.4341L17.2187 13.5152L12.8323 13.5959L11.0852 14.8123C11.0016 14.8705 10.8924 14.8768 10.8026 14.8287C10.7128 14.7806 10.6576 14.6861 10.6597 14.5843L10.8197 6.98762C10.8204 6.95486 10.827 6.92249 10.8393 6.8921L11.8355 4.4196C11.8632 4.35085 11.9179 4.29646 11.9868 4.2691L16.8255 2.34785C16.895 2.32029 16.9727 2.32262 17.0403 2.35427ZM17.2081 12.9736L12.7401 13.0559C12.6865 13.0569 12.6343 13.0737 12.5903 13.1044L11.2125 14.0637L11.2816 10.7833L11.2825 10.7376C11.2858 10.5817 11.2909 10.6494 11.2875 10.4999C11.2842 10.3503 11.2904 10.3624 11.293 10.2413L11.3602 7.04857L12.2946 4.7297L16.758 2.95748L17.4266 4.9931L16.7342 7.72768C16.7276 7.75381 16.7249 7.78078 16.7263 7.8077L16.793 9.14013L16.4923 9.5838L13.2842 8.63731C13.1408 8.59498 12.9901 8.67697 12.9478 8.82043C12.9055 8.96389 12.9875 9.11451 13.1309 9.15683L16.3863 10.1173L17.2081 12.9736Z" fill="url(#paint1_linear_39_203)"/>
<path fill-rule="evenodd" clip-rule="evenodd" d="M9.71717 4.52083C9.71717 4.37126 9.83843 4.25 9.98801 4.25H12.0868C12.2363 4.25 12.3576 4.37126 12.3576 4.52083C12.3576 4.67041 12.2363 4.79167 12.0868 4.79167H9.98801C9.83843 4.79167 9.71717 4.67041 9.71717 4.52083ZM12.7218 11.1188C12.794 11.0915 12.8743 11.0963 12.9427 11.1319L13.8902 11.6257C13.9852 11.6751 14.042 11.7758 14.0354 11.8827C14.0288 11.9895 13.9598 12.0824 13.8595 12.1197L12.532 12.6134C12.4322 12.6506 12.3199 12.6257 12.245 12.55C12.1701 12.4743 12.1466 12.3617 12.1848 12.2623L12.5648 11.2748C12.5925 11.2028 12.6496 11.146 12.7218 11.1188ZM12.9614 11.7524L12.906 11.8964L13.0995 11.8244L12.9614 11.7524ZM8.80476 14.5337C8.83135 14.4086 8.9418 14.3192 9.06967 14.3192H10.0122C10.1618 14.3192 10.283 14.4404 10.283 14.59C10.283 14.7396 10.1618 14.8608 10.0122 14.8608H9.28898L9.10164 15.7421H9.84342C9.993 15.7421 10.1143 15.8633 10.1143 16.0129C10.1143 16.1625 9.993 16.2837 9.84342 16.2837H8.76717C8.68546 16.2837 8.60812 16.2469 8.55669 16.1834C8.50527 16.1199 8.48527 16.0365 8.50226 15.9566L8.80476 14.5337Z" fill="url(#paint2_linear_39_203)"/>
<path fill-rule="evenodd" clip-rule="evenodd" d="M2.95982 2.35427C3.02746 2.32262 3.10516 2.32029 3.17457 2.34785L8.01332 4.2691C8.08221 4.29646 8.13688 4.35085 8.16458 4.4196L9.16083 6.8921C9.17308 6.92249 9.17971 6.95486 9.1804 6.98762L9.3404 14.5843C9.34254 14.6861 9.28734 14.7806 9.19752 14.8287C9.10771 14.8768 8.9985 14.8705 8.91488 14.8123L7.16781 13.5959L2.7814 13.5152L3.50015 16.4341L6.7836 15.4163C6.87508 15.3879 6.97473 15.41 7.04569 15.4743L8.87161 17.1296H10.0121C10.1617 17.1296 10.283 17.2508 10.283 17.4004C10.283 17.55 10.1617 17.6712 10.0121 17.6712H8.76712C8.69988 17.6712 8.63504 17.6462 8.58522 17.6011L6.79638 15.9794L3.38607 17.0366C3.3148 17.0587 3.23758 17.0504 3.17262 17.0137C3.10767 16.977 3.06073 16.9151 3.0429 16.8427L2.17123 13.3027C2.15991 13.2567 2.16084 13.2085 2.17393 13.163L3.09929 9.94654L2.70792 9.369C2.67494 9.32033 2.65869 9.26225 2.66163 9.20352L2.68286 8.77962L2.34774 8.73883C2.19925 8.72076 2.09354 8.58574 2.11161 8.43726C2.12968 8.28878 2.2647 8.18306 2.41318 8.20114L2.71001 8.23726L2.72086 8.02055L2.33475 7.95443C2.18731 7.92919 2.08826 7.78921 2.11351 7.64177C2.13876 7.49434 2.27874 7.39529 2.42617 7.42054L2.63861 7.45692L2.02916 5.04979C2.01655 4.99999 2.01837 4.94762 2.0344 4.89881L2.81731 2.51506C2.84062 2.44411 2.89218 2.38593 2.95982 2.35427ZM3.61381 10.1173L2.79206 12.9736L7.26003 13.0559C7.31365 13.0569 7.36577 13.0737 7.40979 13.1044L8.78765 14.0637L8.71856 10.7833V10.7343C8.71856 10.6506 8.71523 10.6494 8.71856 10.4999C8.70714 10.3241 8.70714 10.4163 8.70714 10.2413L8.63989 7.04857L7.70555 4.7297L3.24214 2.95748L2.57356 4.9931L3.26592 7.72768C3.27254 7.75381 3.27522 7.78078 3.27387 7.8077L3.20715 9.14013L3.5078 9.5838L6.7159 8.63731C6.85936 8.59498 7.00998 8.67697 7.0523 8.82043C7.09463 8.96389 7.01264 9.11451 6.86918 9.15683L3.61381 10.1173Z" fill="url(#paint3_linear_39_203)"/>
<path fill-rule="evenodd" clip-rule="evenodd" d="M7.64257 4.52083C7.64257 4.37126 7.76383 4.25 7.9134 4.25H10.0122C10.1617 4.25 10.283 4.37126 10.283 4.52083C10.283 4.67041 10.1617 4.79167 10.0122 4.79167H7.9134C7.76383 4.79167 7.64257 4.67041 7.64257 4.52083ZM7.27836 11.1188C7.35053 11.146 7.40763 11.2028 7.43533 11.2748L7.81533 12.2623C7.85358 12.3617 7.83003 12.4743 7.75515 12.55C7.68027 12.6257 7.56797 12.6506 7.46815 12.6134L6.14065 12.1197C6.04034 12.0824 5.97141 11.9895 5.96476 11.8827C5.95811 11.7758 6.015 11.6751 6.10991 11.6257L7.05741 11.1319C7.12583 11.0963 7.2062 11.0915 7.27836 11.1188ZM6.90061 11.8244L7.09414 11.8964L7.03874 11.7524L6.90061 11.8244Z" fill="url(#paint4_linear_39_203)"/>
<defs>
<linearGradient id="paint0_linear_39_203" x1="10.5381" y1="14.3191" x2="11.9327" y2="14.8077" gradientUnits="userSpaceOnUse">
<stop stop-color="#9C77F5"/>
<stop offset="1" stop-color="#7751F1"/>
</linearGradient>
<linearGradient id="paint1_linear_39_203" x1="13.8482" y1="2.32873" x2="20.3087" y2="3.56877" gradientUnits="userSpaceOnUse">
<stop stop-color="#9C77F5"/>
<stop offset="1" stop-color="#7751F1"/>
</linearGradient>
<linearGradient id="paint2_linear_39_203" x1="11.2661" y1="4.25" x2="15.6396" y2="4.9676" gradientUnits="userSpaceOnUse">
<stop stop-color="#9C77F5"/>
<stop offset="1" stop-color="#7751F1"/>
</linearGradient>
<linearGradient id="paint3_linear_39_203" x1="6.15192" y1="2.32873" x2="12.6124" y2="3.56877" gradientUnits="userSpaceOnUse">
<stop stop-color="#9C77F5"/>
<stop offset="1" stop-color="#7751F1"/>
</linearGradient>
<linearGradient id="paint4_linear_39_203" x1="8.12361" y1="4.25" x2="11.5108" y2="4.87216" gradientUnits="userSpaceOnUse">
<stop stop-color="#9C77F5"/>
<stop offset="1" stop-color="#7751F1"/>
</linearGradient>
</defs>
</svg>
