<svg width="24" height="24" viewBox="0 0 24 24" fill="none" xmlns="http://www.w3.org/2000/svg">
<path d="M2.39623 13.0056L11.9057 22.5655C12.1938 22.8552 12.542 23 12.9503 23C13.3585 23 13.6947 22.8552 13.9588 22.5655C14.247 22.2999 14.3853 21.9619 14.3738 21.5515C14.3613 21.1411 14.223 20.8032 13.9588 20.5376L6.8988 13.4401C5.5 12 5.5 12 6.8988 10.5432L13.9588 3.44568C14.247 3.15599 14.3853 2.81174 14.3738 2.41292C14.3613 2.01508 14.211 1.68338 13.9228 1.41783C13.6346 1.12813 13.2922 0.989081 12.8955 1.00067C12.4998 1.01322 12.1698 1.15227 11.9057 1.41783L2.39623 10.9777C2.25214 11.1226 2.14985 11.2795 2.08933 11.4485C2.02978 11.6175 2 11.7985 2 11.9916C2 12.1848 2.02978 12.3658 2.08933 12.5348C2.14985 12.7038 2.25214 12.8607 2.39623 13.0056Z" fill="white"/>
</svg>
