<svg width="20" height="20" viewBox="0 0 20 20" fill="none" xmlns="http://www.w3.org/2000/svg">
<path fill-rule="evenodd" clip-rule="evenodd" d="M16.0417 12.5549C16.4244 10.5555 16.4244 8.50171 16.0417 6.50235C15.9561 6.05476 15.5852 5.71748 15.1315 5.67457L13.2287 5.49461C13.0189 5.47477 12.9163 5.46507 12.814 5.45593C10.4855 5.24802 8.14319 5.24802 5.81475 5.45593C5.71242 5.46507 5.6098 5.47477 5.40002 5.49461L5 5.53244V13.5248L5.40002 13.5626C5.6098 13.5824 5.71242 13.5921 5.81475 13.6013C8.14319 13.8092 10.4855 13.8092 12.814 13.6013C12.9163 13.5921 13.0189 13.5824 13.2287 13.5626L15.1315 13.3826C15.5852 13.3397 15.9561 13.0024 16.0417 12.5549ZM17.4932 11.696C17.4469 12.0651 17.3887 12.433 17.3186 12.7992C17.1243 13.8145 16.283 14.5795 15.2539 14.6769L13.3511 14.8568L13.349 14.857C13.1419 14.8766 13.0357 14.8866 12.9296 14.8961C10.5242 15.1109 8.1045 15.1109 5.69913 14.8961C5.59312 14.8867 5.48709 14.8766 5.28047 14.8571L5.27971 14.857L5.27762 14.8568L3.37479 14.6769C2.3457 14.5795 1.50444 13.8145 1.31015 12.7992C0.896618 10.6384 0.896618 8.41879 1.31015 6.25799C1.50445 5.24273 2.3457 4.47767 3.37479 4.38034L5.27762 4.20038L5.2799 4.20017C5.4869 4.18059 5.59303 4.17055 5.69913 4.16108C8.1045 3.94631 10.5242 3.94631 12.9296 4.16108C13.0357 4.17055 13.1418 4.18059 13.3488 4.20016L13.3488 4.20017L13.3511 4.20038L15.2539 4.38034C16.283 4.47767 17.1243 5.24273 17.3186 6.25799C17.4343 6.86285 17.5177 7.47232 17.5686 8.08381H18.0534C18.6057 8.08381 19.0534 8.53153 19.0534 9.08381V10.696C19.0534 11.2483 18.6057 11.696 18.0534 11.696H17.4932Z" fill="white"/>
</svg>
