<svg width="20" height="20" viewBox="0 0 20 20" fill="none" xmlns="http://www.w3.org/2000/svg">
<path fill-rule="evenodd" clip-rule="evenodd" d="M5.3 9.87398C5.3 9.28081 4.89848 8.76287 4.32404 8.61501C3.15923 8.31521 2.3 7.25631 2.3 6C2.3 4.50883 3.50883 3.3 5 3.3C6.49117 3.3 7.7 4.50883 7.7 6V12.35H5.3V9.87398ZM7.7 15.5V13.65H5.3V15.5C5.3 16.1627 5.83726 16.7 6.5 16.7C7.16274 16.7 7.7 16.1627 7.7 15.5ZM4 9.87398V15.5C4 16.8807 5.11929 18 6.5 18C7.88071 18 9 16.8807 9 15.5V6C9 3.79086 7.20914 2 5 2C2.79086 2 1 3.79086 1 6C1 7.86384 2.27477 9.42994 4 9.87398ZM14.7 9.87398C14.7 9.28081 15.1015 8.76287 15.676 8.61501C16.8408 8.31521 17.7 7.25631 17.7 6C17.7 4.50883 16.4912 3.3 15 3.3C13.5088 3.3 12.3 4.50883 12.3 6V12.35H14.7V9.87398ZM12.3 15.5V13.65H14.7V15.5C14.7 16.1627 14.1627 16.7 13.5 16.7C12.8373 16.7 12.3 16.1627 12.3 15.5ZM16 9.87398V15.5C16 16.8807 14.8807 18 13.5 18C12.1193 18 11 16.8807 11 15.5V6C11 3.79086 12.7909 2 15 2C17.2091 2 19 3.79086 19 6C19 7.86384 17.7252 9.42994 16 9.87398Z" fill="white"/>
</svg>
