<svg width="20" height="20" viewBox="0 0 20 20" fill="none" xmlns="http://www.w3.org/2000/svg">
<g clip-path="url(#clip0_106_2388)">
<path fill-rule="evenodd" clip-rule="evenodd" d="M9.51862 2.76842C8.79421 2.0615 7.6672 1.40963 6.43913 1.13672C4.81703 0.776246 2.92067 1.06027 1.48257 2.81791C-1.0454 5.90758 0.0174443 9.88572 2.0055 12.8999C3.01428 14.4293 4.29991 15.7818 5.60394 16.7577C6.88613 17.7174 8.2758 18.3796 9.48561 18.3796C9.49668 18.3796 9.50768 18.3793 9.51861 18.3787C9.52955 18.3793 9.54055 18.3796 9.55162 18.3796C10.7614 18.3796 12.1511 17.7174 13.4333 16.7577C14.7373 15.7818 16.023 14.4293 17.0317 12.8999C19.0198 9.88572 20.0826 5.90758 17.5547 2.81791C16.1166 1.06027 14.2202 0.776246 12.5981 1.13672C11.37 1.40963 10.243 2.0615 9.51862 2.76842ZM9.51862 4.37884C9.29757 4.38986 9.07647 4.28766 8.94478 4.09013C8.55284 3.50222 7.45963 2.69521 6.15712 2.40576C4.90423 2.12734 3.5506 2.34328 2.4887 3.64113C0.516626 6.05139 1.20377 9.32327 3.09071 12.1841C4.01944 13.5922 5.20256 14.8336 6.3829 15.717C7.58509 16.6167 8.69543 17.0796 9.48561 17.0796C9.49668 17.0796 9.50768 17.0798 9.51861 17.0804C9.52955 17.0798 9.54055 17.0796 9.55162 17.0796C10.3418 17.0796 11.4521 16.6167 12.6543 15.717C13.8347 14.8336 15.0178 13.5922 15.9465 12.1841C17.8335 9.32327 18.5206 6.05139 16.5485 3.64113C15.4866 2.34328 14.133 2.12734 12.8801 2.40576C11.5776 2.69521 10.4844 3.50222 10.0925 4.09013C9.96076 4.28766 9.73966 4.38986 9.51862 4.37884Z" fill="#FAFAFA"/>
</g>
<defs>
<clipPath id="clip0_106_2388">
<rect width="20" height="20" fill="white"/>
</clipPath>
</defs>
</svg>
