<svg width="95" height="64" viewBox="0 0 95 64" fill="none" xmlns="http://www.w3.org/2000/svg">
<path fill-rule="evenodd" clip-rule="evenodd" d="M38.7749 27.1789L34.8908 23.7444C33.2925 22.3311 30.8914 22.3311 29.2932 23.7444L25.4091 27.1789C23.7836 28.6163 22.9813 30.7691 23.2696 32.9197L23.9039 37.6517C24.1851 39.7495 25.975 41.3155 28.0915 41.3155H36.0925C38.209 41.3155 39.9989 39.7495 40.2801 37.6517L40.9144 32.9197C41.2027 30.7691 40.4003 28.6163 38.7749 27.1789ZM35.8741 22.6323C33.7143 20.7225 30.4696 20.7225 28.3098 22.6323L24.4257 26.0669C22.4296 27.832 21.4442 30.4758 21.7983 33.1169L22.4326 37.849C22.8126 40.6837 25.2314 42.7999 28.0915 42.7999H36.0925C38.9526 42.7999 41.3714 40.6837 41.7514 37.849L42.3857 33.1169C42.7397 30.4758 41.7544 27.832 39.7582 26.0669L35.8741 22.6323Z" fill="white"/>
<path fill-rule="evenodd" clip-rule="evenodd" d="M27.924 36.4164C27.924 36.0065 28.2563 35.6742 28.6662 35.6742H35.5176C35.9276 35.6742 36.2599 36.0065 36.2599 36.4164C36.2599 36.8264 35.9276 37.1587 35.5176 37.1587H28.6662C28.2563 37.1587 27.924 36.8264 27.924 36.4164Z" fill="white"/>
<path fill-rule="evenodd" clip-rule="evenodd" d="M66.8741 22.6323C64.7143 20.7225 61.4696 20.7225 59.3098 22.6323L55.4257 26.0669C53.4296 27.832 52.4442 30.4758 52.7983 33.1169L53.4326 37.849C53.8126 40.6837 56.2314 42.7999 59.0915 42.7999H67.0925C69.9526 42.7999 72.3714 40.6837 72.7514 37.849L73.3857 33.1169C73.7397 30.4758 72.7544 27.832 70.7582 26.0669L66.8741 22.6323ZM59.6663 35.6743C59.2563 35.6743 58.924 36.0066 58.924 36.4165C58.924 36.8264 59.2563 37.1587 59.6663 37.1587H66.5177C66.9276 37.1587 67.2599 36.8264 67.2599 36.4165C67.2599 36.0066 66.9276 35.6743 66.5177 35.6743H59.6663Z" fill="url(#paint0_linear_57_204)"/>
<rect x="0.5" y="0.5" width="94" height="63" rx="4.5" stroke="#9747FF" stroke-dasharray="10 5"/>
<defs>
<linearGradient id="paint0_linear_57_204" x1="63.092" y1="21.1999" x2="78.1378" y2="26.3466" gradientUnits="userSpaceOnUse">
<stop stop-color="#9C77F5"/>
<stop offset="1" stop-color="#7751F1"/>
</linearGradient>
</defs>
</svg>
