<svg width="20" height="20" viewBox="0 0 20 20" fill="none" xmlns="http://www.w3.org/2000/svg">
<path fill-rule="evenodd" clip-rule="evenodd" d="M15.6444 2.75792C16.9209 2.6558 17.9449 3.79598 17.7066 5.05424L17.2906 7.25055C16.6655 10.5511 15.395 13.6957 13.5519 16.5042L13.3254 16.8494C12.5733 17.9955 10.8938 17.9978 10.1385 16.8538C9.70148 16.1918 9.36555 15.4684 9.14182 14.7073L8.48588 12.476C8.45195 12.3606 8.40977 12.2486 8.35997 12.1409L11.8454 9.06457C12.1145 8.82702 12.1401 8.41626 11.9026 8.14711C11.665 7.87797 11.2543 7.85236 10.9851 8.08991L7.5196 11.1487C7.402 11.0685 7.27675 10.9982 7.1449 10.9391L4.54435 9.77175C4.14874 9.59417 3.76857 9.38403 3.40775 9.14349L2.9136 8.81406C2.06369 8.24746 2.04711 7.00432 2.88162 6.41525C5.63891 4.46893 8.86889 3.29996 12.2332 3.03082L15.6444 2.75792ZM18.9838 5.29615C19.3817 3.19528 17.6721 1.29155 15.5407 1.46206L12.1295 1.73496C8.53281 2.0227 5.0797 3.27242 2.13193 5.3532C0.551657 6.46868 0.583051 8.82278 2.1925 9.89573L2.68665 10.2252C3.10738 10.5056 3.55068 10.7507 4.01199 10.9578L6.61254 12.1251C6.91607 12.2613 7.14482 12.5235 7.23866 12.8427L7.8946 15.0739C8.15477 15.959 8.54541 16.8002 9.05365 17.5701C10.3236 19.4937 13.1476 19.4898 14.4122 17.5627L14.6388 17.2174C16.5757 14.2659 17.9109 10.9611 18.5679 7.49246L18.9838 5.29615Z" fill="white"/>
</svg>
