<svg width="20" height="20" viewBox="0 0 20 20" fill="none" xmlns="http://www.w3.org/2000/svg">
<path fill-rule="evenodd" clip-rule="evenodd" d="M8.24896 3.4019C10.5469 3.04306 12.8866 3.04306 15.1846 3.4019C15.9563 3.52241 16.5528 4.14295 16.6427 4.91881L16.7891 6.18202C17.0931 8.80532 17.0931 11.455 16.7891 14.0783L16.6427 15.3415C16.5528 16.1173 15.9563 16.7379 15.1846 16.8584C12.8866 17.2172 10.5469 17.2172 8.24896 16.8584C7.47726 16.7379 6.88077 16.1173 6.79084 15.3415L6.58595 13.5737C6.54993 13.2629 6.26881 13.0402 5.95805 13.0762C5.64729 13.1122 5.42457 13.3933 5.46059 13.7041L5.66549 15.4719C5.81403 16.7535 6.79939 17.7786 8.07416 17.9777C10.4879 18.3546 12.9456 18.3546 15.3594 17.9777C16.6341 17.7786 17.6195 16.7535 17.768 15.4719L17.9145 14.2087C18.2285 11.4987 18.2285 8.76155 17.9145 6.05159L17.768 4.78838C17.6195 3.50673 16.6341 2.48165 15.3594 2.28258C12.9456 1.90564 10.4879 1.90564 8.07416 2.28258C6.79939 2.48165 5.81403 3.50673 5.66549 4.78838L5.46059 6.55618C5.42457 6.86694 5.64729 7.14805 5.95805 7.18407C6.26881 7.22009 6.54993 6.99737 6.58595 6.68661L6.79084 4.91881C6.88077 4.14295 7.47726 3.52241 8.24896 3.4019ZM10.3743 7.11515C10.1531 6.89394 9.79447 6.89394 9.57326 7.11515C9.35205 7.33637 9.35205 7.69502 9.57326 7.91623L11.2206 9.56361H2.56644C2.25361 9.56361 2 9.81721 2 10.1301C2 10.4429 2.25361 10.6965 2.56644 10.6965H11.2206L9.57326 12.3439C9.35205 12.5651 9.35205 12.9237 9.57326 13.1449C9.79447 13.3662 10.1531 13.3662 10.3743 13.1449L12.9887 10.5306C13.2099 10.3094 13.2099 9.95072 12.9887 9.72951L10.3743 7.11515Z" fill="url(#paint0_linear_41_126)"/>
<defs>
<linearGradient id="paint0_linear_41_126" x1="10.075" y1="1.99988" x2="21.7104" y2="6.11895" gradientUnits="userSpaceOnUse">
<stop stop-color="#9C77F5"/>
<stop offset="1" stop-color="#7751F1"/>
</linearGradient>
</defs>
</svg>
