<svg width="20" height="20" viewBox="0 0 20 20" fill="none" xmlns="http://www.w3.org/2000/svg">
<g clip-path="url(#clip0_124_1047)">
<path fill-rule="evenodd" clip-rule="evenodd" d="M8.24895 3.4019C10.5469 3.04306 12.8866 3.04306 15.1846 3.4019C15.9563 3.52241 16.5528 4.14295 16.6427 4.91881L16.7891 6.18202C17.0931 8.80532 17.0931 11.455 16.7891 14.0783L16.6427 15.3415C16.5528 16.1173 15.9563 16.7379 15.1846 16.8584C12.8866 17.2172 10.5469 17.2172 8.24895 16.8584C7.47726 16.7379 6.88076 16.1173 6.79084 15.3415L6.58594 13.5737C6.54993 13.2629 6.26881 13.0402 5.95805 13.0762C5.64729 13.1122 5.42457 13.3933 5.46059 13.7041L5.66548 15.4719C5.81403 16.7535 6.79938 17.7786 8.07416 17.9777C10.4879 18.3546 12.9456 18.3546 15.3594 17.9777C16.6341 17.7786 17.6195 16.7535 17.768 15.4719L17.9144 14.2087C18.2285 11.4987 18.2285 8.76155 17.9144 6.05159L17.768 4.78838C17.6195 3.50673 16.6341 2.48165 15.3594 2.28258C12.9456 1.90564 10.4879 1.90564 8.07416 2.28258C6.79938 2.48165 5.81403 3.50673 5.66548 4.78838L5.46059 6.55618C5.42457 6.86694 5.64729 7.14805 5.95805 7.18407C6.26881 7.22009 6.54993 6.99737 6.58594 6.68661L6.79084 4.91881C6.88076 4.14295 7.47726 3.52241 8.24895 3.4019ZM2.78015 7.16591C3.00136 6.9447 3.36001 6.9447 3.58122 7.16591C3.80243 7.38712 3.80243 7.74577 3.58122 7.96698L1.93384 9.61436H10.588C10.9009 9.61436 11.1545 9.86797 11.1545 10.1808C11.1545 10.4936 10.9009 10.7472 10.588 10.7472H1.93384L3.58122 12.3946C3.80243 12.6158 3.80243 12.9745 3.58122 13.1957C3.36001 13.4169 3.00136 13.4169 2.78015 13.1957L0.165785 10.5813C-0.0554246 10.3601 -0.0554246 10.0015 0.165785 9.78027L2.78015 7.16591Z" fill="url(#paint0_linear_124_1047)"/>
</g>
<defs>
<linearGradient id="paint0_linear_124_1047" x1="9.07495" y1="1.99988" x2="21.7792" y2="7.05433" gradientUnits="userSpaceOnUse">
<stop stop-color="#9C77F5"/>
<stop offset="1" stop-color="#7751F1"/>
</linearGradient>
<clipPath id="clip0_124_1047">
<rect width="20" height="20" fill="white"/>
</clipPath>
</defs>
</svg>
