<svg width="20" height="20" viewBox="0 0 20 20" fill="none" xmlns="http://www.w3.org/2000/svg">
<path fill-rule="evenodd" clip-rule="evenodd" d="M15.3333 8.74996C15.3333 11.9256 12.759 14.5 9.58333 14.5C6.4077 14.5 3.83333 11.9256 3.83333 8.74996C3.83333 5.57432 6.4077 2.99996 9.58333 2.99996C12.759 2.99996 15.3333 5.57432 15.3333 8.74996ZM13.631 14.5636C12.4837 15.3639 11.0883 15.8333 9.58333 15.8333C5.67132 15.8333 2.5 12.662 2.5 8.74996C2.5 4.83794 5.67132 1.66663 9.58333 1.66663C13.4954 1.66663 16.6667 4.83794 16.6667 8.74996C16.6667 10.6781 15.8963 12.4263 14.6465 13.7036L17.879 16.9361C18.1393 17.1965 18.1393 17.6186 17.879 17.8789C17.6186 18.1393 17.1965 18.1393 16.9362 17.8789L13.6953 14.638C13.6717 14.6145 13.6503 14.5896 13.631 14.5636Z" fill="#FAFAFA"/>
</svg>
