<svg width="95" height="64" viewBox="0 0 95 64" fill="none" xmlns="http://www.w3.org/2000/svg">
<path fill-rule="evenodd" clip-rule="evenodd" d="M32.6108 40.743C36.3548 38.9005 39.3543 34.7115 39.3543 30.7441C39.3543 26.2893 35.8636 22.76 31.6572 22.76C27.4507 22.76 23.96 26.2893 23.96 30.7441C23.96 34.8109 26.6846 38.9856 30.6371 40.7718C31.2692 41.0575 31.9949 41.0461 32.6108 40.743ZM33.2996 42.1427C37.4726 40.0891 40.9143 35.414 40.9143 30.7441C40.9143 25.473 36.7697 21.2 31.6572 21.2C26.5446 21.2 22.4 25.473 22.4 30.7441C22.4 35.4529 25.5104 40.1669 29.9946 42.1934C31.0481 42.6695 32.2623 42.6532 33.2996 42.1427Z" fill="white"/>
<path fill-rule="evenodd" clip-rule="evenodd" d="M31.6401 27.2568C30.114 27.2568 28.8769 28.4939 28.8769 30.0199C28.8769 31.546 30.114 32.7831 31.6401 32.7831C33.1661 32.7831 34.4032 31.546 34.4032 30.0199C34.4032 28.4939 33.1661 27.2568 31.6401 27.2568ZM27.4401 30.0199C27.4401 27.7004 29.3205 25.8199 31.6401 25.8199C33.9597 25.8199 35.8401 27.7004 35.8401 30.0199C35.8401 32.3395 33.9597 34.2199 31.6401 34.2199C29.3205 34.2199 27.4401 32.3395 27.4401 30.0199Z" fill="white"/>
<path fill-rule="evenodd" clip-rule="evenodd" d="M64.2996 42.1427C68.4726 40.0891 71.9143 35.414 71.9143 30.7441C71.9143 25.473 67.7697 21.2 62.6572 21.2C57.5446 21.2 53.4 25.473 53.4 30.7441C53.4 35.4529 56.5104 40.1669 60.9946 42.1934C62.0481 42.6695 63.2623 42.6532 64.2996 42.1427ZM62.4 33.2C64.0569 33.2 65.4 31.8568 65.4 30.2C65.4 28.5431 64.0569 27.2 62.4 27.2C60.7432 27.2 59.4 28.5431 59.4 30.2C59.4 31.8568 60.7432 33.2 62.4 33.2Z" fill="url(#paint0_linear_57_205)"/>
<rect x="0.5" y="0.5" width="94" height="63" rx="4.5" stroke="#9747FF" stroke-dasharray="10 5"/>
<defs>
<linearGradient id="paint0_linear_57_205" x1="62.6572" y1="21.1999" x2="76.3573" y2="25.4368" gradientUnits="userSpaceOnUse">
<stop stop-color="#9C77F5"/>
<stop offset="1" stop-color="#7751F1"/>
</linearGradient>
</defs>
</svg>
