<svg width="27" height="27" viewBox="0 0 27 27" fill="none" xmlns="http://www.w3.org/2000/svg">
<path d="M13 8C14.1046 8 15 7.10457 15 6C15 4.89543 14.1046 4 13 4C11.8954 4 11 4.89543 11 6C11 7.10457 11.8954 8 13 8Z" fill="white"/>
<path d="M13 16C14.1046 16 15 15.1046 15 14C15 12.8954 14.1046 12 13 12C11.8954 12 11 12.8954 11 14C11 15.1046 11.8954 16 13 16Z" fill="white"/>
<path d="M13 24C14.1046 24 15 23.1046 15 22C15 20.8954 14.1046 20 13 20C11.8954 20 11 20.8954 11 22C11 23.1046 11.8954 24 13 24Z" fill="white"/>
</svg>
