<svg width="20" height="20" viewBox="0 0 20 20" fill="none" xmlns="http://www.w3.org/2000/svg">
<path fill-rule="evenodd" clip-rule="evenodd" d="M10 2.307L7.18385 5.62781C6.96512 5.88573 6.68548 6.08646 6.36961 6.21227L2.30263 7.83218L4.62913 11.5045C4.80982 11.7897 4.91663 12.1145 4.94014 12.4501L5.24276 16.7721L9.49677 15.7209C9.82717 15.6393 10.1728 15.6393 10.5032 15.7209L14.7572 16.7721L15.0599 12.4501C15.0834 12.1145 15.1902 11.7897 15.3709 11.5045L17.6974 7.83218L13.6304 6.21227C13.3145 6.08646 13.0349 5.88573 12.8162 5.62781L10 2.307ZM10.6912 1.31873C10.3308 0.893755 9.66922 0.893756 9.30882 1.31873L6.28531 4.88405C6.19022 4.99619 6.06863 5.08346 5.93129 5.13817L1.56486 6.87735C1.04439 7.08466 0.83996 7.70627 1.13769 8.17623L3.63549 12.1189C3.71405 12.2429 3.7605 12.3841 3.77071 12.5301L4.09562 17.1703C4.13435 17.7234 4.66957 18.1075 5.21397 17.973L9.78121 16.8444C9.92486 16.8089 10.0751 16.8089 10.2188 16.8444L14.786 17.973C15.3304 18.1075 15.8657 17.7234 15.9044 17.1703L16.2293 12.5301C16.2395 12.3841 16.2859 12.2429 16.3645 12.1189L18.8623 8.17623C19.16 7.70627 18.9556 7.08466 18.4351 6.87735L14.0687 5.13817C13.9314 5.08346 13.8098 4.99619 13.7147 4.88405L10.6912 1.31873Z" fill="white"/>
</svg>
