<svg width="20" height="20" viewBox="0 0 20 20" fill="none" xmlns="http://www.w3.org/2000/svg">
<path fill-rule="evenodd" clip-rule="evenodd" d="M3.40795 11.1691L3.77676 9.36425C4.15226 7.52661 4.92485 5.79324 6.04045 4.28547C7.99919 1.63817 11.9596 1.63818 13.9183 4.2855C15.0339 5.79325 15.8065 7.5266 16.182 9.36421L16.5508 11.1691C17.1052 13.8823 15.4697 16.5631 12.8033 17.3113C10.9564 17.8296 9.0024 17.8296 7.15543 17.3113C4.48909 16.5631 2.85352 13.8824 3.40795 11.1691ZM4.99541 3.51224C7.47383 0.162571 12.4849 0.162591 14.9634 3.51227C16.1916 5.17231 17.0422 7.08072 17.4557 9.10394L17.8245 10.9088C18.5154 14.29 16.4772 17.6306 13.1546 18.5629C11.0779 19.1457 8.88088 19.1457 6.8042 18.5629C3.48153 17.6306 1.44337 14.29 2.13427 10.9088L2.50308 9.10399C2.91651 7.08074 3.76713 5.1723 4.99541 3.51224ZM10.6294 4.94014C10.6294 4.58116 10.3384 4.29014 9.9794 4.29014C9.62041 4.29014 9.3294 4.58116 9.3294 4.94014V9.02213C9.3294 9.38112 9.62041 9.67213 9.9794 9.67213C10.3384 9.67213 10.6294 9.38112 10.6294 9.02213V4.94014Z" fill="white"/>
</svg>
