<svg width="20" height="20" viewBox="0 0 20 20" fill="none" xmlns="http://www.w3.org/2000/svg">
<path fill-rule="evenodd" clip-rule="evenodd" d="M17.7 10C17.7 14.2526 14.2526 17.7 10 17.7C5.74741 17.7 2.3 14.2526 2.3 10C2.3 5.74741 5.74741 2.3 10 2.3C14.2526 2.3 17.7 5.74741 17.7 10ZM19 10C19 14.9706 14.9706 19 10 19C5.02944 19 1 14.9706 1 10C1 5.02944 5.02944 1 10 1C14.9706 1 19 5.02944 19 10ZM9.43725 8.75305L12.5643 7.31994L11.1312 10.447L8.00414 11.8801L9.43725 8.75305ZM13.9143 7.49446C14.3585 6.52527 13.3589 5.52572 12.3897 5.9699L8.84498 7.59446C8.59445 7.70928 8.39348 7.91025 8.27867 8.16078L6.6541 11.7055C6.20992 12.6747 7.20947 13.6743 8.17866 13.2301L11.7234 11.6055C11.974 11.4907 12.1749 11.2898 12.2897 11.0392L13.9143 7.49446Z" fill="white"/>
</svg>
