<svg width="24" height="24" viewBox="0 0 24 24" fill="none" xmlns="http://www.w3.org/2000/svg">
<path d="M17.6038 13.0056L8.09434 22.5655C7.80618 22.8552 7.45798 23 7.04974 23C6.64151 23 6.30532 22.8552 6.04117 22.5655C5.753 22.2999 5.61468 21.9619 5.62621 21.5515C5.6387 21.1411 5.77702 20.8032 6.04117 20.5376L13.1012 13.4401C14.5 12 14.5 12 13.1012 10.5432L6.04117 3.44568C5.753 3.15599 5.61468 2.81174 5.62621 2.41292C5.6387 2.01508 5.78902 1.68338 6.07719 1.41783C6.36535 1.12813 6.70779 0.989081 7.1045 1.00067C7.50024 1.01322 7.83019 1.15227 8.09434 1.41783L17.6038 10.9777C17.7479 11.1226 17.8502 11.2795 17.9107 11.4485C17.9702 11.6175 18 11.7985 18 11.9916C18 12.1848 17.9702 12.3658 17.9107 12.5348C17.8502 12.7038 17.7479 12.8607 17.6038 13.0056Z" fill="white"/>
</svg>
