<svg width="95" height="64" viewBox="0 0 95 64" fill="none" xmlns="http://www.w3.org/2000/svg">
<path fill-rule="evenodd" clip-rule="evenodd" d="M39.8929 28.8282C39.8929 32.8123 36.8386 36.083 32.9438 36.4267L32.9438 41.3679C32.9438 41.3777 32.9436 41.3875 32.9432 41.3971H34.3256C34.6845 41.3971 34.9756 41.6882 34.9756 42.0471C34.9756 42.4061 34.6845 42.6971 34.3256 42.6971H29.6928C29.3339 42.6971 29.0428 42.4061 29.0428 42.0471C29.0428 41.6882 29.3339 41.3971 29.6928 41.3971H31.586C31.5856 41.3875 31.5853 41.3777 31.5853 41.3679L31.5853 36.4267C27.6906 36.083 24.6364 32.8123 24.6364 28.8282C24.6364 24.6152 28.0516 21.2 32.2646 21.2C36.4776 21.2 39.8929 24.6152 39.8929 28.8282ZM38.5344 28.8282C38.5344 32.2909 35.7273 35.098 32.2646 35.098C28.8019 35.098 25.9948 32.2909 25.9948 28.8282C25.9948 25.3655 28.8019 22.5584 32.2646 22.5584C35.7273 22.5584 38.5344 25.3655 38.5344 28.8282ZM33.6108 29.4972C33.3631 29.779 33.3908 30.2081 33.6726 30.4558C33.9544 30.7034 34.3836 30.6757 34.6312 30.3939C34.9885 29.9874 35.2076 29.2467 35.1344 28.512C35.0555 27.7194 34.6336 26.8729 33.638 26.3229C33.3097 26.1415 32.8964 26.2607 32.7151 26.5891C32.5337 26.9174 32.6528 27.3307 32.9812 27.512C33.5531 27.8279 33.7441 28.2596 33.7827 28.6466C33.827 29.0917 33.668 29.4321 33.6108 29.4972Z" fill="white"/>
<path fill-rule="evenodd" clip-rule="evenodd" d="M63.6798 35.9483C67.4559 35.6192 70.4182 32.4497 70.4182 28.5882C70.4182 24.5078 67.1103 21.2 63.0299 21.2C58.9494 21.2 55.6416 24.5078 55.6416 28.5882C55.6416 32.4496 58.6038 35.6192 62.3798 35.9483L62.3798 41.254C62.3798 41.3032 62.3853 41.3511 62.3957 41.3971H60.6847C60.3257 41.3971 60.0347 41.6882 60.0347 42.0471C60.0347 42.4061 60.3257 42.6971 60.6847 42.6971H65.3174C65.6764 42.6971 65.9674 42.4061 65.9674 42.0471C65.9674 41.6882 65.6764 41.3971 65.3174 41.3971H63.664C63.6744 41.3511 63.6798 41.3032 63.6798 41.254L63.6798 35.9483ZM64.4758 30.205C64.2061 29.968 64.1796 29.5573 64.4166 29.2877C64.4824 29.2129 64.6445 28.8584 64.599 28.4012C64.559 27.9995 64.3599 27.5525 63.7711 27.2272C63.4568 27.0536 63.3428 26.6582 63.5164 26.344C63.6899 26.0297 64.0854 25.9157 64.3996 26.0893C65.394 26.6385 65.814 27.4825 65.8926 28.2724C65.9657 29.0067 65.7461 29.7442 65.3931 30.1459C65.1561 30.4155 64.7454 30.442 64.4758 30.205Z" fill="url(#paint0_linear_57_206)"/>
<rect x="0.5" y="0.5" width="94" height="63" rx="4.5" stroke="#9747FF" stroke-dasharray="10 5"/>
<defs>
<linearGradient id="paint0_linear_57_206" x1="63.0299" y1="21.1999" x2="74.3316" y2="23.9689" gradientUnits="userSpaceOnUse">
<stop stop-color="#9C77F5"/>
<stop offset="1" stop-color="#7751F1"/>
</linearGradient>
</defs>
</svg>
