<svg width="95" height="64" viewBox="0 0 95 64" fill="none" xmlns="http://www.w3.org/2000/svg">
<path fill-rule="evenodd" clip-rule="evenodd" d="M34.325 21.7918C32.8863 20.9612 31.1137 20.9612 29.675 21.7918L24.3219 24.8824C22.8832 25.713 21.9969 27.2481 21.9969 28.9094V35.0906C21.9969 36.7519 22.8832 38.287 24.322 39.1176L29.675 42.2082C31.1137 43.0389 32.8863 43.0389 34.325 42.2082L39.6781 39.1176C41.1168 38.287 42.0031 36.7519 42.0031 35.0906V28.9094C42.0031 27.2481 41.1168 25.713 39.6781 24.8824L34.325 21.7918ZM30.325 22.9176C31.3615 22.3192 32.6385 22.3192 33.675 22.9176L39.0281 26.0082C40.0646 26.6067 40.7031 27.7126 40.7031 28.9094V35.0906C40.7031 36.2875 40.0646 37.3934 39.0281 37.9918L33.675 41.0824C32.6385 41.6808 31.3615 41.6808 30.325 41.0824L24.972 37.9918C23.9355 37.3934 23.2969 36.2875 23.2969 35.0906V28.9094C23.2969 27.7126 23.9355 26.6067 24.9719 26.0082L30.325 22.9176ZM34.3 32C34.3 33.2703 33.2703 34.3 32 34.3C30.7298 34.3 29.7 33.2703 29.7 32C29.7 30.7298 30.7298 29.7 32 29.7C33.2703 29.7 34.3 30.7298 34.3 32ZM35.6 32C35.6 33.9882 33.9882 35.6 32 35.6C30.0118 35.6 28.4 33.9882 28.4 32C28.4 30.0118 30.0118 28.4 32 28.4C33.9882 28.4 35.6 30.0118 35.6 32Z" fill="white"/>
<path fill-rule="evenodd" clip-rule="evenodd" d="M65.4 22.5856C63.9149 21.7281 62.0852 21.7281 60.6 22.5856L56.047 25.2143C54.5618 26.0717 53.647 27.6563 53.647 29.3712V34.6287C53.647 36.3435 54.5618 37.9281 56.047 38.7856L60.6 41.4143C62.0852 42.2717 63.9149 42.2717 65.4 41.4143L69.9531 38.7856C71.4382 37.9281 72.3531 36.3435 72.3531 34.6287V29.3712C72.3531 27.6563 71.4382 26.0717 69.9531 25.2143L65.4 22.5856ZM63 34.3999C64.3255 34.3999 65.4 33.3254 65.4 31.9999C65.4 30.6745 64.3255 29.5999 63 29.5999C61.6746 29.5999 60.6 30.6745 60.6 31.9999C60.6 33.3254 61.6746 34.3999 63 34.3999Z" fill="url(#paint0_linear_57_207)"/>
<rect x="0.5" y="0.5" width="94" height="63" rx="4.5" stroke="#9747FF" stroke-dasharray="10 5"/>
<defs>
<linearGradient id="paint0_linear_57_207" x1="63" y1="21.9425" x2="76.6647" y2="26.4719" gradientUnits="userSpaceOnUse">
<stop stop-color="#9C77F5"/>
<stop offset="1" stop-color="#7751F1"/>
</linearGradient>
</defs>
</svg>
