<svg width="20" height="20" viewBox="0 0 20 20" fill="none" xmlns="http://www.w3.org/2000/svg">
<path fill-rule="evenodd" clip-rule="evenodd" d="M14.209 4.50382C13.7101 3.51458 12.7014 2.24228 11.2343 1.81334C9.67082 1.35624 7.88947 1.93149 6.07345 4.04448C5.99643 4.13409 5.89756 4.18863 5.80283 4.20538C4.32983 4.46572 3.25998 4.73452 2.55353 4.95072C1.69164 5.21449 1.17329 5.97114 1.07249 6.77753L1.01985 7.19864C0.753628 9.32841 0.772538 11.4842 1.07608 13.6089C1.17974 14.3346 1.63279 14.9631 2.28839 15.2909L2.37327 15.3334C3.41362 15.8535 4.56078 16.1244 5.72392 16.1244H5.92139C5.98025 16.1244 6.05792 16.1507 6.12962 16.2226C6.98334 17.0786 8.32678 18.0613 9.8155 18.2861C10.5794 18.4014 11.3886 18.317 12.1656 17.9054C12.9377 17.4963 13.6214 16.7943 14.1937 15.77C14.2208 15.7215 14.2442 15.6691 14.2626 15.614C15.3908 12.2292 15.4461 8.57856 14.4209 5.16115L14.2688 4.65404C14.254 4.60462 14.2345 4.55431 14.209 4.50382ZM7.16909 4.98614C8.7664 3.12763 10.0017 2.95814 10.8289 3.19998C11.7372 3.46555 12.4836 4.3119 12.8985 5.11423L13.0372 5.57628C13.972 8.69228 13.9267 12.0198 12.9081 15.1086C12.4438 15.9252 11.9509 16.3842 11.4893 16.6288C11.0243 16.875 10.5355 16.9337 10.0311 16.8576C8.98338 16.6994 7.90954 15.9614 7.15254 15.2024C6.84068 14.8897 6.4057 14.6797 5.92139 14.6797H5.72392C4.78506 14.6797 3.8591 14.4611 3.01936 14.0412L2.93447 13.9988C2.7029 13.883 2.54287 13.6609 2.50625 13.4046C2.22087 11.407 2.20309 9.38019 2.45339 7.37783L2.50602 6.95672C2.54754 6.6246 2.74106 6.40416 2.97631 6.33216C3.61711 6.13605 4.62857 5.88001 6.05428 5.62802C6.4988 5.54945 6.88917 5.31183 7.16909 4.98614ZM18.681 6.55084C18.5238 6.18415 18.0992 6.01429 17.7325 6.17144C17.3658 6.32859 17.1959 6.75324 17.3531 7.11993C18.3397 9.42202 18.3397 12.0279 17.3531 14.33C17.1959 14.6966 17.3658 15.1213 17.7325 15.2784C18.0992 15.4356 18.5238 15.2657 18.681 14.899C19.8233 12.2335 19.8233 9.21633 18.681 6.55084Z" fill="white"/>
</svg>
