<svg width="20" height="20" viewBox="0 0 20 20" fill="none" xmlns="http://www.w3.org/2000/svg">
<path fill-rule="evenodd" clip-rule="evenodd" d="M12.646 6.21053C12.646 7.93133 11.3075 9.32632 9.65631 9.32632C8.00513 9.32632 6.66658 7.93133 6.66658 6.21053C6.66658 4.48972 8.00513 3.09474 9.65631 3.09474C11.3075 3.09474 12.646 4.48972 12.646 6.21053ZM13.6965 6.21053C13.6965 8.53594 11.8876 10.4211 9.65631 10.4211C7.42498 10.4211 5.61613 8.53594 5.61613 6.21053C5.61613 3.88512 7.42498 2 9.65631 2C11.8876 2 13.6965 3.88512 13.6965 6.21053ZM14.2425 14.8419C14.2922 15.1065 14.245 15.301 14.129 15.4842C13.9958 15.6948 13.7379 15.9365 13.3053 16.1659C12.433 16.6284 11.1039 16.9053 9.65096 16.9053C8.19714 16.9053 6.88603 16.6313 6.02352 16.1717C5.59675 15.9443 5.33692 15.7022 5.19835 15.4854C5.07506 15.2926 5.02203 15.0844 5.0653 14.8078C5.17952 14.0779 5.64653 13.4617 6.46951 12.9973C7.30277 12.5272 8.42348 12.2671 9.5973 12.2686C10.7703 12.27 11.904 12.5326 12.7598 13.008C13.609 13.4798 14.1046 14.1074 14.2425 14.8419ZM15.2734 14.6316C15.6868 16.8336 12.7561 18 9.65096 18C6.54579 18 3.68192 16.8467 4.02855 14.6316C4.75208 10.0082 14.4101 10.0343 15.2734 14.6316Z" fill="url(#paint0_linear_39_193)"/>
<defs>
<linearGradient id="paint0_linear_39_193" x1="9.65624" y1="2" x2="18.2802" y2="4.1733" gradientUnits="userSpaceOnUse">
<stop stop-color="#9C77F5"/>
<stop offset="1" stop-color="#7751F1"/>
</linearGradient>
</defs>
</svg>
