<svg width="20" height="20" viewBox="0 0 20 20" fill="none" xmlns="http://www.w3.org/2000/svg">
<path fill-rule="evenodd" clip-rule="evenodd" d="M9.25946 0.965942C8.73113 0.965942 8.20637 1.05692 7.71451 1.23519C7.22264 1.41346 6.77059 1.67657 6.386 2.01308C6.00125 2.34974 5.69069 2.75415 5.47685 3.20587C5.32872 3.51878 5.22959 3.84904 5.18259 4.18711C4.0067 4.52479 3.12645 5.53665 2.97582 6.7768L2.95357 6.96006C2.68719 9.15321 2.68719 11.3705 2.95357 13.5637L2.97582 13.7469C3.13057 15.021 4.05536 16.0541 5.27965 16.3628C5.33066 16.5411 5.39656 16.7158 5.47687 16.8855C5.69071 17.3372 6.00127 17.7416 6.38602 18.0783C6.77061 18.4148 7.22266 18.6779 7.71454 18.8562C8.20639 19.0344 8.73115 19.1254 9.25948 19.1254C9.78781 19.1254 10.3126 19.0344 10.8044 18.8562C11.2963 18.6779 11.7484 18.4148 12.1329 18.0783C12.5177 17.7416 12.8282 17.3372 13.0421 16.8855C13.1224 16.7158 13.1883 16.5411 13.2393 16.3628C14.4636 16.0541 15.3883 15.021 15.5431 13.7469L15.5653 13.5637C15.6289 13.0406 15.6772 12.5161 15.7105 11.9909H16.0408C16.5931 11.9909 17.0408 11.5432 17.0408 10.9909V9.53258C17.0408 8.98029 16.5931 8.53258 16.0408 8.53258H15.7105C15.6772 8.00747 15.6289 7.48308 15.5653 6.96006L15.5431 6.7768C15.3925 5.53666 14.5122 4.5248 13.3363 4.18712C13.2893 3.84905 13.1902 3.51879 13.0421 3.20587C12.8282 2.75415 12.5177 2.34974 12.1329 2.01308C11.7483 1.67657 11.2963 1.41346 10.8044 1.23519C10.3125 1.05692 9.78779 0.965942 9.25946 0.965942ZM14.4519 9.43264C14.4273 8.6591 14.3683 7.88639 14.2748 7.1168L14.2526 6.93354C14.1559 6.13787 13.5397 5.50475 12.7469 5.38661C10.4347 5.04205 8.08419 5.04205 5.77196 5.38661C4.97919 5.50475 4.36298 6.13787 4.26634 6.93354L4.24408 7.1168C3.99035 9.20584 3.99035 11.3179 4.24408 13.4069L4.26634 13.5902C4.36298 14.3859 4.97919 15.019 5.77196 15.1371C8.08419 15.4817 10.4347 15.4817 12.7469 15.1371C13.5397 15.019 14.1559 14.3859 14.2526 13.5902L14.2748 13.4069C14.3683 12.6373 14.4273 11.8645 14.4519 11.0909C14.4487 11.058 14.447 11.0247 14.447 10.9909V9.53258C14.447 9.49885 14.4487 9.46551 14.4519 9.43264ZM7.24207 17.0999C7.06021 16.9408 6.90758 16.763 6.78648 16.5727C8.43107 16.7365 10.0879 16.7365 11.7325 16.5727C11.6114 16.763 11.4588 16.9408 11.2769 17.0999C11.0192 17.3254 10.7088 17.5081 10.3615 17.634C10.0141 17.7599 9.63947 17.8254 9.25948 17.8254C8.87949 17.8254 8.50482 17.7599 8.15751 17.634C7.8102 17.5081 7.49976 17.3254 7.24207 17.0999ZM11.9539 3.97404C11.929 3.90255 11.9001 3.83182 11.8671 3.7621C11.7333 3.47955 11.5344 3.21677 11.2769 2.99143C11.0192 2.76595 10.7087 2.58326 10.3614 2.45739C10.0141 2.33151 9.63944 2.26594 9.25946 2.26594C8.87947 2.26594 8.5048 2.33151 8.15748 2.45739C7.81018 2.58326 7.49974 2.76596 7.24205 2.99143C6.98452 3.21677 6.7856 3.47955 6.65184 3.7621C6.61884 3.83182 6.58989 3.90255 6.565 3.97404C8.35604 3.77957 10.1629 3.77957 11.9539 3.97404Z" fill="white"/>
</svg>
